# xmcd
#
# Track frame offsets:
#	182
#	17235
#	32472
#	49457
#
# Disc length: 884 seconds
#
# Revision: 0
# Processed by: cddbd v1.5.1PL0 Copyright (c) Steve Scherf et al.
# Submitted via: audiograbber 1.83.01
#
DISCID=2c037204
DTITLE=Hansi Hinterseer - Ein schneeweiﬂes Brautkleid
DYEAR=1996
DGENRE=
TTITLE0=Ein schneeweiﬂes Brautkleid (Radio-Version)
TTITLE1=Ein schneeweiﬂes Brautkleid (TV-Edit)
TTITLE2=Ein schneeweiﬂes Brautkleid (Karaoke-Version)
TTITLE3=Ein schneeweiﬂes Brautkleid (Instrumental)
EXTD=
EXTT0=(Radio-Version)
EXTT1=(TV-Edit)
EXTT2=(Karaoke-Version)
EXTT3=(Instrumental)
PLAYORDER=
